<svg xmlns="http://www.w3.org/2000/svg" xmlns:xlink="http://www.w3.org/1999/xlink" width="500" zoomAndPan="magnify" viewBox="0 0 375 374.999991" height="500" preserveAspectRatio="xMidYMid meet" version="1.0"><defs><g/><clipPath id="b2227bd939"><path d="M 50 58 L 318 58 L 318 325 L 50 325 Z M 50 58 " clipRule="nonzero"/></clipPath><clipPath id="99bd5abedb"><path d="M 188.445312 1.929688 L 334.148438 154.199219 L 140.148438 339.824219 L -5.550781 187.554688 Z M 188.445312 1.929688 " clipRule="nonzero"/></clipPath><clipPath id="24c0f451f1"><path d="M 188.445312 1.929688 L 374.074219 195.925781 L 180.074219 381.550781 L -5.550781 187.554688 Z M 188.445312 1.929688 " clipRule="nonzero"/></clipPath><clipPath id="7768ccc366"><path d="M 243.648438 211.566406 L 256.839844 211.566406 L 256.839844 224.757812 L 243.648438 224.757812 Z M 243.648438 211.566406 " clipRule="nonzero"/></clipPath><clipPath id="1a63d36f86"><path d="M 250.246094 211.566406 C 246.601562 211.566406 243.648438 214.519531 243.648438 218.164062 C 243.648438 221.804688 246.601562 224.757812 250.246094 224.757812 C 253.886719 224.757812 256.839844 221.804688 256.839844 218.164062 C 256.839844 214.519531 253.886719 211.566406 250.246094 211.566406 " clipRule="nonzero"/></clipPath></defs><rect x="-37.5" width="450" fill="#ffffff" y="-37.499999" height="449.999989" fill-opacity="1"/><rect x="-37.5" width="450" fill="#ffffff" y="-37.499999" height="449.999989" fill-opacity="1"/><rect x="-37.5" width="450" fill="#ffffff" y="-37.499999" height="449.999989" fill-opacity="1"/><g clip-path="url(#b2227bd939)"><g clip-path="url(#99bd5abedb)"><g clip-path="url(#24c0f451f1)"><path fill="#000000" d="M 245.46875 307.484375 C 234.742188 313.039062 223.203125 316.882812 211.429688 319.222656 C 201.792969 321.074219 192.011719 322.054688 182.21875 322.007812 C 180.914062 322.039062 179.613281 321.921875 178.3125 321.875 C 177.011719 321.804688 175.707031 321.777344 174.40625 321.675781 L 170.515625 321.320312 L 168.566406 321.140625 L 166.632812 320.878906 L 162.757812 320.359375 C 161.46875 320.15625 160.191406 319.902344 158.90625 319.679688 C 156.328125 319.28125 153.800781 318.652344 151.246094 318.105469 C 150.878906 318.027344 150.496094 317.941406 150.09375 317.855469 C 149.699219 317.746094 149.289062 317.632812 148.859375 317.519531 C 148.003906 317.28125 147.082031 317.027344 146.105469 316.757812 C 144.128906 316.261719 141.984375 315.492188 139.613281 314.710938 C 139.027344 314.507812 138.417969 314.324219 137.808594 314.09375 C 137.203125 313.859375 136.589844 313.617188 135.960938 313.371094 C 134.707031 312.878906 133.40625 312.367188 132.0625 311.839844 C 129.453125 310.625 126.609375 309.476562 123.792969 307.945312 C 112.3125 302.265625 99.96875 293.269531 89.496094 282.414062 C 79.113281 271.472656 70.671875 258.746094 65.5 247.027344 C 64.097656 244.144531 63.074219 241.253906 61.976562 238.589844 C 61.507812 237.226562 61.054688 235.90625 60.617188 234.632812 C 60.402344 233.992188 60.1875 233.367188 59.976562 232.753906 C 59.773438 232.136719 59.617188 231.519531 59.441406 230.921875 C 58.761719 228.523438 58.089844 226.34375 57.679688 224.347656 C 57.453125 223.359375 57.242188 222.425781 57.046875 221.5625 C 56.945312 221.128906 56.851562 220.714844 56.761719 220.3125 C 56.691406 219.910156 56.625 219.519531 56.5625 219.152344 C 54.777344 209.519531 53.859375 199.738281 53.972656 189.945312 C 54.199219 179.515625 55.703125 169.144531 58.097656 158.980469 C 60.953125 147.316406 65.304688 135.960938 71.324219 125.488281 C 77.222656 114.941406 84.847656 105.378906 93.535156 96.921875 C 102.367188 88.617188 112.257812 81.417969 123.054688 75.996094 C 133.78125 70.441406 145.316406 66.597656 157.09375 64.253906 C 166.726562 62.40625 176.507812 61.425781 186.300781 61.472656 C 187.605469 61.441406 188.90625 61.554688 190.210938 61.601562 C 191.511719 61.671875 192.816406 61.703125 194.113281 61.800781 L 198.007812 62.160156 L 199.953125 62.335938 L 201.890625 62.601562 L 205.765625 63.121094 C 207.050781 63.324219 208.328125 63.578125 209.613281 63.796875 C 212.191406 64.199219 214.722656 64.828125 217.273438 65.371094 C 217.640625 65.453125 218.023438 65.539062 218.425781 65.625 C 218.820312 65.734375 219.234375 65.84375 219.660156 65.960938 C 220.515625 66.195312 221.4375 66.449219 222.417969 66.722656 C 224.390625 67.21875 226.539062 67.988281 228.90625 68.765625 C 229.496094 68.96875 230.105469 69.15625 230.710938 69.386719 C 231.316406 69.621094 231.933594 69.863281 232.5625 70.109375 C 233.816406 70.601562 235.117188 71.113281 236.457031 71.640625 C 239.070312 72.851562 241.914062 74.003906 244.726562 75.53125 C 256.210938 81.214844 268.550781 90.210938 279.027344 101.066406 C 289.40625 112.007812 297.847656 124.734375 303.019531 136.453125 C 304.421875 139.335938 305.445312 142.222656 306.542969 144.890625 C 307.011719 146.25 307.464844 147.574219 307.902344 148.847656 C 308.121094 149.484375 308.335938 150.113281 308.542969 150.726562 C 308.746094 151.34375 308.902344 151.960938 309.082031 152.558594 C 309.757812 154.957031 310.429688 157.136719 310.839844 159.128906 C 311.066406 160.121094 311.277344 161.050781 311.476562 161.917969 C 311.574219 162.347656 311.667969 162.765625 311.757812 163.167969 C 311.828125 163.570312 311.894531 163.957031 311.960938 164.328125 C 313.746094 173.960938 314.660156 183.742188 314.546875 193.535156 C 314.324219 203.964844 312.816406 214.335938 310.421875 224.5 C 307.566406 236.164062 303.214844 247.519531 297.195312 257.992188 C 291.300781 268.535156 283.671875 278.101562 274.988281 286.558594 C 266.15625 294.863281 256.265625 302.058594 245.46875 307.484375 Z M 277.136719 288.675781 L 277.144531 288.667969 C 286.011719 280.03125 293.808594 270.265625 299.847656 259.492188 C 306.011719 248.796875 310.460938 237.183594 313.347656 225.261719 L 314.601562 219.652344 C 314.601562 219.652344 314.898438 218.097656 315.335938 215.765625 C 315.84375 213.445312 316.191406 210.296875 316.652344 207.167969 C 316.917969 204.015625 317.296875 200.875 317.335938 198.503906 C 317.441406 196.132812 317.507812 194.554688 317.507812 194.554688 C 317.507812 194.554688 317.519531 194.160156 317.523438 193.46875 C 317.523438 192.777344 317.53125 191.789062 317.535156 190.605469 C 317.609375 188.230469 317.417969 185.078125 317.292969 181.917969 C 317.179688 180.34375 317.015625 178.769531 316.890625 177.292969 C 316.820312 176.554688 316.757812 175.84375 316.695312 175.167969 C 316.601562 174.496094 316.511719 173.859375 316.429688 173.269531 C 316.105469 170.921875 315.886719 169.355469 315.886719 169.355469 C 315.886719 169.355469 315.855469 169 315.753906 168.46875 C 315.660156 167.941406 315.539062 167.234375 315.414062 166.527344 C 315.167969 165.113281 314.917969 163.699219 314.917969 163.699219 C 314.855469 163.320312 314.785156 162.925781 314.714844 162.511719 C 314.625 162.101562 314.53125 161.675781 314.429688 161.230469 C 314.230469 160.34375 314.015625 159.390625 313.785156 158.378906 C 313.371094 156.335938 312.6875 154.105469 311.996094 151.648438 C 311.816406 151.039062 311.652344 150.40625 311.449219 149.773438 C 311.234375 149.144531 311.015625 148.503906 310.796875 147.851562 C 310.347656 146.542969 309.886719 145.191406 309.410156 143.792969 C 308.289062 141.066406 307.242188 138.109375 305.808594 135.160156 C 300.523438 123.15625 291.886719 110.121094 281.257812 98.925781 C 270.546875 87.816406 257.902344 78.613281 246.144531 72.804688 C 243.261719 71.242188 240.351562 70.0625 237.675781 68.828125 C 236.300781 68.289062 234.972656 67.765625 233.683594 67.261719 C 233.042969 67.011719 232.410156 66.765625 231.792969 66.523438 C 231.171875 66.292969 230.546875 66.101562 229.941406 65.894531 C 227.519531 65.097656 225.320312 64.316406 223.300781 63.8125 C 222.296875 63.535156 221.355469 63.28125 220.476562 63.039062 C 220.039062 62.921875 219.617188 62.808594 219.210938 62.699219 C 218.800781 62.609375 218.40625 62.523438 218.03125 62.445312 C 218.03125 62.445312 216.632812 62.132812 215.230469 61.824219 C 214.527344 61.671875 213.828125 61.515625 213.304688 61.398438 C 212.78125 61.273438 212.425781 61.230469 212.425781 61.230469 C 212.425781 61.230469 210.871094 60.941406 208.539062 60.511719 C 207.953125 60.40625 207.324219 60.289062 206.65625 60.164062 C 205.984375 60.074219 205.273438 59.976562 204.539062 59.878906 C 203.070312 59.683594 201.507812 59.449219 199.9375 59.269531 C 196.785156 59.007812 193.644531 58.675781 191.269531 58.644531 C 190.085938 58.597656 189.097656 58.558594 188.40625 58.53125 C 187.71875 58.503906 187.320312 58.5 187.320312 58.5 C 187.320312 58.5 185.742188 58.496094 183.371094 58.496094 C 181 58.429688 177.84375 58.671875 174.683594 58.796875 C 171.539062 59.121094 168.378906 59.328125 166.035156 59.730469 C 163.6875 60.070312 162.121094 60.292969 162.121094 60.292969 L 156.464844 61.300781 C 144.421875 63.65625 132.625 67.59375 121.667969 73.277344 C 110.640625 78.835938 100.542969 86.195312 91.519531 94.675781 L 91.511719 94.679688 L 91.449219 94.742188 L 91.382812 94.804688 L 91.378906 94.8125 C 82.511719 103.449219 74.710938 113.214844 68.671875 123.984375 C 62.511719 134.683594 58.058594 146.292969 55.175781 158.21875 L 53.917969 163.828125 C 53.917969 163.828125 53.625 165.382812 53.183594 167.714844 C 52.679688 170.035156 52.332031 173.183594 51.871094 176.3125 C 51.605469 179.464844 51.222656 182.605469 51.183594 184.976562 C 51.082031 187.34375 51.011719 188.925781 51.011719 188.925781 C 51.011719 188.925781 51 189.320312 51 190.011719 C 50.996094 190.703125 50.988281 191.6875 50.984375 192.875 C 50.910156 195.246094 51.105469 198.402344 51.230469 201.5625 C 51.339844 203.136719 51.503906 204.707031 51.632812 206.183594 C 51.699219 206.921875 51.765625 207.636719 51.828125 208.3125 C 51.921875 208.984375 52.007812 209.621094 52.089844 210.207031 C 52.417969 212.558594 52.636719 214.121094 52.636719 214.121094 C 52.636719 214.121094 52.664062 214.480469 52.765625 215.007812 C 52.859375 215.539062 52.984375 216.246094 53.105469 216.953125 C 53.355469 218.367188 53.601562 219.78125 53.601562 219.78125 C 53.667969 220.15625 53.734375 220.554688 53.804688 220.96875 C 53.894531 221.378906 53.992188 221.804688 54.089844 222.25 C 54.289062 223.136719 54.507812 224.085938 54.734375 225.101562 C 55.152344 227.140625 55.835938 229.375 56.523438 231.832031 C 56.703125 232.441406 56.867188 233.074219 57.074219 233.707031 C 57.285156 234.335938 57.503906 234.976562 57.726562 235.628906 C 58.171875 236.933594 58.636719 238.289062 59.113281 239.683594 C 60.230469 242.414062 61.28125 245.371094 62.710938 248.320312 C 68 260.320312 76.636719 273.359375 87.261719 284.554688 C 97.976562 295.660156 110.621094 304.863281 122.378906 310.675781 C 125.261719 312.234375 128.171875 313.414062 130.847656 314.652344 C 132.21875 315.191406 133.550781 315.714844 134.835938 316.214844 C 135.480469 316.46875 136.109375 316.714844 136.730469 316.953125 C 137.351562 317.1875 137.976562 317.378906 138.578125 317.585938 C 141.003906 318.382812 143.203125 319.164062 145.222656 319.667969 C 146.226562 319.941406 147.167969 320.199219 148.042969 320.4375 C 148.480469 320.558594 148.90625 320.671875 149.308594 320.78125 C 149.722656 320.867188 150.113281 320.953125 150.488281 321.035156 C 150.488281 321.035156 151.890625 321.34375 153.292969 321.65625 C 153.992188 321.808594 154.691406 321.964844 155.21875 322.078125 C 155.738281 322.203125 156.097656 322.25 156.097656 322.25 C 156.097656 322.25 157.652344 322.535156 159.984375 322.964844 C 160.566406 323.074219 161.199219 323.191406 161.863281 323.3125 C 162.539062 323.40625 163.246094 323.503906 163.980469 323.601562 C 165.453125 323.792969 167.015625 324.027344 168.585938 324.210938 C 171.734375 324.472656 174.878906 324.804688 177.25 324.835938 C 178.433594 324.882812 179.421875 324.921875 180.113281 324.949219 C 180.804688 324.976562 181.199219 324.980469 181.199219 324.980469 C 181.199219 324.980469 182.78125 324.980469 185.148438 324.984375 C 187.523438 325.050781 190.675781 324.808594 193.835938 324.679688 C 196.984375 324.359375 200.144531 324.152344 202.484375 323.75 C 204.835938 323.410156 206.398438 323.183594 206.398438 323.183594 L 212.058594 322.179688 C 224.097656 319.824219 235.894531 315.886719 246.851562 310.203125 C 257.878906 304.644531 267.980469 297.28125 277 288.804688 L 277.007812 288.800781 L 277.074219 288.738281 L 277.136719 288.675781 " fill-opacity="1" fillRule="nonzero"/></g></g></g><g fill="#000000" fill-opacity="1"><g transform="translate(235.96919, 312.566058)"><g><path d="M 10.0625 -7.3125 C 9.539062 -5.65625 8.5625 -4.441406 7.125 -3.671875 C 6.21875 -3.191406 5.273438 -2.921875 4.296875 -2.859375 C 3.328125 -2.804688 2.382812 -2.9375 1.46875 -3.25 C 0.5625 -3.5625 -0.285156 -4.050781 -1.078125 -4.71875 C -1.867188 -5.394531 -2.523438 -6.222656 -3.046875 -7.203125 C -3.546875 -8.140625 -3.84375 -9.109375 -3.9375 -10.109375 C -4.039062 -11.109375 -3.957031 -12.078125 -3.6875 -13.015625 C -3.425781 -13.953125 -2.988281 -14.816406 -2.375 -15.609375 C -1.769531 -16.398438 -1 -17.050781 -0.0625 -17.5625 C 1.21875 -18.238281 2.457031 -18.550781 3.65625 -18.5 C 4.863281 -18.445312 5.9375 -18.09375 6.875 -17.4375 L 5.6875 -14.921875 C 4.96875 -15.421875 4.203125 -15.679688 3.390625 -15.703125 C 2.585938 -15.734375 1.820312 -15.550781 1.09375 -15.15625 C 0.53125 -14.851562 0.0703125 -14.453125 -0.28125 -13.953125 C -0.632812 -13.460938 -0.867188 -12.914062 -0.984375 -12.3125 C -1.097656 -11.707031 -1.097656 -11.082031 -0.984375 -10.4375 C -0.878906 -9.789062 -0.664062 -9.160156 -0.34375 -8.546875 C 0 -7.910156 0.421875 -7.367188 0.921875 -6.921875 C 1.421875 -6.472656 1.957031 -6.140625 2.53125 -5.921875 C 3.101562 -5.703125 3.695312 -5.601562 4.3125 -5.625 C 4.925781 -5.65625 5.519531 -5.828125 6.09375 -6.140625 C 7.40625 -6.835938 8.269531 -8.082031 8.6875 -9.875 L 8.1875 -10.84375 L 5.4375 -9.390625 L 4.40625 -11.328125 L 9.328125 -13.953125 L 13.046875 -6.953125 L 10.875 -5.78125 Z M 10.0625 -7.3125 "/></g></g></g><g fill="#000000" fill-opacity="1"><g transform="translate(258.130749, 299.727005)"><g><path d="M 1.265625 -1 L -8.34375 -13.046875 L -3.984375 -16.53125 C -2.992188 -17.320312 -2 -17.851562 -1 -18.125 C -0.0078125 -18.394531 0.945312 -18.457031 1.875 -18.3125 C 2.8125 -18.164062 3.691406 -17.828125 4.515625 -17.296875 C 5.335938 -16.773438 6.082031 -16.097656 6.75 -15.265625 C 7.476562 -14.359375 8 -13.421875 8.3125 -12.453125 C 8.625 -11.484375 8.726562 -10.53125 8.625 -9.59375 C 8.53125 -8.65625 8.234375 -7.75 7.734375 -6.875 C 7.234375 -6.007812 6.53125 -5.210938 5.625 -4.484375 Z M 4.390625 -13.375 C 3.929688 -13.957031 3.425781 -14.429688 2.875 -14.796875 C 2.332031 -15.160156 1.765625 -15.394531 1.171875 -15.5 C 0.585938 -15.601562 0 -15.570312 -0.59375 -15.40625 C -1.1875 -15.238281 -1.769531 -14.925781 -2.34375 -14.46875 L -4.375 -12.84375 L 1.953125 -4.90625 L 3.984375 -6.53125 C 4.566406 -7 5 -7.507812 5.28125 -8.0625 C 5.570312 -8.625 5.722656 -9.203125 5.734375 -9.796875 C 5.742188 -10.398438 5.632812 -11.003906 5.40625 -11.609375 C 5.175781 -12.222656 4.835938 -12.8125 4.390625 -13.375 Z M 4.390625 -13.375 "/></g></g></g><g fill="#000000" fill-opacity="1"><g transform="translate(277.383216, 283.1818)"><g><path d="M -7.671875 -14.640625 L -5.921875 -16.640625 L 9.53125 -10.921875 L 7.515625 -8.609375 L 3.671875 -10.046875 L 0.125 -5.984375 L 2.09375 -2.40625 L 0.078125 -0.078125 Z M 1.71875 -11.03125 L -4.234375 -13.40625 L -1.140625 -7.765625 Z M 1.71875 -11.03125 "/></g></g></g><g fill="#000000" fill-opacity="1"><g transform="translate(292.763372, 264.23744)"><g><path d="M -11.46875 -10.8125 L -3.15625 -10.234375 L -7.515625 -17.375 L -5.84375 -20.140625 L -0.15625 -10.1875 L 4.453125 -7.40625 L 2.921875 -4.859375 L -1.71875 -7.65625 L -13.140625 -8.03125 Z M -11.46875 -10.8125 "/></g></g></g><g fill="#000000" fill-opacity="1"><g transform="translate(90.955155, 223.082618)"><g><path d="M 84.585938 -2.824219 C 74.234375 -5.902344 78.683594 -40.28125 78.683594 -47.296875 C 78.683594 -50.289062 67.648438 -51.144531 62.691406 -51.144531 C 57.558594 -51.144531 47.722656 -50.203125 47.722656 -46.441406 C 47.722656 -44.902344 49.519531 -44.386719 50.800781 -44.386719 C 51.402344 -44.386719 51.828125 -44.472656 52.171875 -44.558594 C 54.90625 -45.414062 57.816406 -45.753906 60.722656 -45.753906 C 64.484375 -45.753906 68.25 -45.414062 71.839844 -44.644531 C 71.328125 -35.835938 71.328125 -27.625 71.753906 -19.671875 C 67.992188 -10.945312 58.671875 -3.507812 49.003906 -3.507812 C 48.40625 -3.507812 47.894531 -3.507812 47.296875 -3.59375 C 25.65625 -5.644531 16.078125 -28.394531 16.078125 -46.78125 C 16.078125 -66.625 27.882812 -87.917969 49.261719 -87.917969 C 56.273438 -87.917969 63.375 -85.269531 69.273438 -80.90625 C 69.703125 -80.5625 70.386719 -80.308594 71.15625 -80.308594 C 73.292969 -80.308594 75.945312 -81.933594 75.945312 -83.558594 C 75.945312 -84.070312 75.605469 -84.667969 75.003906 -85.183594 C 67.734375 -90.398438 59.183594 -93.222656 50.460938 -93.222656 C 23.175781 -93.222656 8.46875 -68.761719 8.46875 -45.925781 C 8.46875 -23.261719 21.636719 1.796875 46.695312 1.796875 C 55.933594 1.796875 69.359375 -2.992188 72.953125 -11.886719 C 73.894531 -4.363281 77.828125 0.855469 82.960938 0.855469 C 84.414062 0.855469 88.519531 0.34375 88.519531 -2.394531 C 88.519531 -2.992188 88.175781 -3.078125 87.664062 -3.078125 C 86.894531 -3.078125 85.78125 -2.738281 85.011719 -2.738281 C 84.839844 -2.738281 84.753906 -2.824219 84.585938 -2.824219 Z M 84.585938 -2.824219 "/></g></g></g><g fill="#000000" fill-opacity="1"><g transform="translate(170.931562, 223.082618)"><g><path d="M 41.222656 -93.222656 C 32.585938 -93.222656 20.441406 -90.3125 13.257812 -85.011719 C 11.972656 -84.070312 11.632812 -83.128906 11.71875 -82.019531 C 13.171875 -70.300781 13.085938 -58.753906 13.085938 -47.125 C 13.085938 -37.546875 12.65625 -26 11.632812 -16.507812 C 11.632812 -15.308594 7.527344 -14.882812 7.527344 -12.914062 C 7.527344 -12.570312 7.695312 -12.230469 8.039062 -11.886719 C 15.90625 -2.566406 30.875 1.027344 43.019531 1.027344 C 67.648438 1.027344 81.078125 -20.441406 81.078125 -46.355469 C 81.078125 -71.414062 67.050781 -93.222656 41.222656 -93.222656 Z M 44.902344 -3.933594 C 36.089844 -3.933594 24.800781 -5.730469 18.558594 -11.289062 C 20.097656 -22.835938 20.78125 -36.519531 20.78125 -48.234375 C 20.78125 -59.695312 20.097656 -71.328125 19.15625 -82.703125 C 23.863281 -85.867188 32.925781 -88.261719 39.597656 -88.261719 C 63.628906 -88.261719 73.550781 -64.65625 73.550781 -45.585938 C 73.550781 -27.539062 65.855469 -3.933594 44.902344 -3.933594 Z M 44.902344 -3.933594 "/></g></g></g><g clip-path="url(#7768ccc366)"><g clip-path="url(#1a63d36f86)"><path fill="#000000" d="M 243.648438 211.566406 L 256.839844 211.566406 L 256.839844 224.757812 L 243.648438 224.757812 Z M 243.648438 211.566406 " fill-opacity="1" fillRule="nonzero"/></g></g></svg>