<svg xmlns="http://www.w3.org/2000/svg" xmlns:xlink="http://www.w3.org/1999/xlink" width="500" zoomAndPan="magnify" viewBox="0 0 375 374.999991" height="500" preserveAspectRatio="xMidYMid meet" version="1.0"><defs><g/><clipPath id="617494b086"><path d="M 33.507812 200.605469 L 350.742188 200.605469 L 350.742188 237.679688 L 33.507812 237.679688 Z M 33.507812 200.605469 " clip-rule="nonzero"/></clipPath></defs><rect x="-37.5" width="450" fill="#ffffff" y="-37.499999" height="449.999989" fill-opacity="1"/><rect x="-37.5" width="450" fill="#ffffff" y="-37.499999" height="449.999989" fill-opacity="1"/><g fill="#3b3937" fill-opacity="1"><g transform="translate(176.410085, 273.355588)"><g><path d="M 6.359375 0 L 6.359375 -1.8125 L 10.1875 -1.8125 C 14.425781 -1.8125 17.726562 -2.78125 20.09375 -4.71875 C 22.457031 -6.664062 23.640625 -9.941406 23.640625 -14.546875 L 23.640625 -115.984375 C 23.640625 -120.222656 22.457031 -123.28125 20.09375 -125.15625 C 17.726562 -127.039062 14.425781 -127.984375 10.1875 -127.984375 L 6.359375 -127.984375 L 6.359375 -129.796875 L 63.265625 -129.796875 C 82.410156 -129.796875 97.316406 -124.25 107.984375 -113.15625 C 118.648438 -102.070312 123.984375 -86.226562 123.984375 -65.625 C 123.984375 -52.414062 121.707031 -40.875 117.15625 -31 C 112.613281 -21.125 105.828125 -13.488281 96.796875 -8.09375 C 87.773438 -2.695312 76.597656 0 63.265625 0 Z M 44.71875 -1.8125 L 59.078125 -1.8125 C 73.742188 -1.8125 84.378906 -6.8125 90.984375 -16.8125 C 97.585938 -26.8125 100.890625 -43.082031 100.890625 -65.625 C 100.890625 -87.5625 97.617188 -103.4375 91.078125 -113.25 C 84.535156 -123.070312 73.929688 -127.984375 59.265625 -127.984375 L 44.71875 -127.984375 Z M 44.71875 -1.8125 "/></g></g></g><g fill="#3b3937" fill-opacity="1"><g transform="translate(66.063523, 216.929254)"><g><path d="M 73.984375 1.8125 C 59.691406 1.8125 47.816406 -0.972656 38.359375 -6.546875 C 28.898438 -12.117188 21.835938 -19.90625 17.171875 -29.90625 C 12.515625 -39.90625 10.1875 -51.628906 10.1875 -65.078125 C 10.1875 -78.171875 12.515625 -89.71875 17.171875 -99.71875 C 21.835938 -109.71875 28.867188 -117.535156 38.265625 -123.171875 C 47.660156 -128.804688 59.507812 -131.625 73.8125 -131.625 C 87.75 -131.625 98.382812 -129.710938 105.71875 -125.890625 C 113.050781 -122.078125 116.71875 -117.257812 116.71875 -111.4375 C 116.71875 -107.320312 115.234375 -104.050781 112.265625 -101.625 C 109.296875 -99.195312 104.535156 -97.863281 97.984375 -97.625 C 97.984375 -109.132812 96.070312 -117.375 92.25 -122.34375 C 88.4375 -127.3125 81.925781 -129.796875 72.71875 -129.796875 C 63.257812 -129.796875 55.648438 -127.613281 49.890625 -123.25 C 44.140625 -118.894531 39.929688 -111.957031 37.265625 -102.4375 C 34.597656 -92.925781 33.265625 -80.472656 33.265625 -65.078125 C 33.265625 -49.566406 34.75 -37.023438 37.71875 -27.453125 C 40.6875 -17.878906 45.382812 -10.910156 51.8125 -6.546875 C 58.238281 -2.179688 66.601562 0 76.90625 0 C 79.925781 0 82.953125 -0.238281 85.984375 -0.71875 C 89.015625 -1.207031 91.742188 -1.753906 94.171875 -2.359375 L 94.171875 -46 C 94.171875 -54.351562 89.382812 -58.53125 79.8125 -58.53125 L 78.71875 -58.53125 L 78.71875 -60.359375 L 128.71875 -60.359375 L 128.71875 -58.53125 L 127.4375 -58.53125 C 122.957031 -58.53125 119.835938 -57.441406 118.078125 -55.265625 C 116.316406 -53.085938 115.4375 -49.753906 115.4375 -45.265625 L 115.4375 -6.90625 C 109.019531 -4 102.476562 -1.816406 95.8125 -0.359375 C 89.144531 1.085938 81.867188 1.8125 73.984375 1.8125 Z M 73.984375 1.8125 "/></g></g></g><g fill="#3b3937" fill-opacity="1"><g transform="translate(97.739466, 248.606489)"><g><path d="M 3.925781 -1.429688 C 3.925781 -1.792969 3.835938 -2.105469 3.664062 -2.347656 C 3.480469 -2.589844 3.238281 -2.753906 2.945312 -2.835938 C 3.117188 -2.914062 3.269531 -3.050781 3.382812 -3.253906 C 3.433594 -3.34375 3.472656 -3.433594 3.503906 -3.535156 C 3.535156 -3.632812 3.550781 -3.769531 3.550781 -3.941406 C 3.550781 -4.109375 3.503906 -4.28125 3.429688 -4.449219 C 3.199219 -4.910156 2.710938 -5.144531 1.960938 -5.144531 L 0.566406 -5.144531 L 0.566406 0 L 2.140625 0 C 2.664062 0 3.078125 -0.113281 3.398438 -0.355469 C 3.554688 -0.476562 3.683594 -0.636719 3.785156 -0.832031 C 3.875 -1.023438 3.925781 -1.21875 3.925781 -1.429688 Z M 3.019531 -3.859375 C 3.019531 -3.578125 2.9375 -3.375 2.769531 -3.238281 C 2.601562 -3.101562 2.382812 -3.035156 2.109375 -3.035156 L 1.097656 -3.035156 L 1.097656 -4.636719 L 1.960938 -4.636719 C 2.664062 -4.636719 3.019531 -4.375 3.019531 -3.859375 Z M 3.398438 -1.535156 C 3.398438 -1.226562 3.292969 -0.976562 3.078125 -0.785156 C 2.875 -0.597656 2.609375 -0.507812 2.292969 -0.507812 L 1.097656 -0.507812 L 1.097656 -2.503906 L 2.375 -2.503906 C 2.640625 -2.503906 2.875 -2.414062 3.078125 -2.230469 C 3.171875 -2.148438 3.246094 -2.050781 3.308594 -1.9375 C 3.367188 -1.816406 3.398438 -1.6875 3.398438 -1.535156 Z M 3.398438 -1.535156 "/></g></g></g><g fill="#3b3937" fill-opacity="1"><g transform="translate(107.629731, 248.606489)"><g><path d="M 3.625 0 L 3.625 -0.492188 L 1.097656 -0.492188 L 1.097656 -2.324219 L 3.550781 -2.324219 L 3.550781 -2.824219 L 1.097656 -2.824219 L 1.097656 -4.652344 L 3.625 -4.652344 L 3.625 -5.144531 L 0.566406 -5.144531 L 0.566406 0 Z M 3.625 0 "/></g></g></g><g fill="#3b3937" fill-opacity="1"><g transform="translate(117.633499, 248.606489)"><g><path d="M 1.398438 -1.890625 L 2.339844 -4.261719 L 3.269531 -1.890625 Z M 4.59375 0 L 2.339844 -5.5 L 0.0742188 0 L 0.652344 0 L 1.203125 -1.398438 L 3.464844 -1.398438 L 4.019531 0 Z M 4.59375 0 "/></g></g></g><g fill="#3b3937" fill-opacity="1"><g transform="translate(128.114002, 248.606489)"><g><path d="M 4.289062 -1.703125 L 4.289062 -5.144531 L 3.761719 -5.144531 L 3.761719 -1.625 C 3.761719 -1.414062 3.722656 -1.242188 3.648438 -1.097656 C 3.429688 -0.671875 3.003906 -0.460938 2.375 -0.460938 C 1.96875 -0.460938 1.640625 -0.550781 1.398438 -0.734375 C 1.121094 -0.9375 0.984375 -1.234375 0.984375 -1.625 L 0.984375 -5.144531 L 0.453125 -5.144531 L 0.453125 -1.703125 C 0.453125 -1.144531 0.636719 -0.703125 1 -0.386719 C 1.339844 -0.0820312 1.800781 0.0664062 2.375 0.0664062 C 2.945312 0.0664062 3.398438 -0.0820312 3.746094 -0.386719 C 4.109375 -0.703125 4.289062 -1.144531 4.289062 -1.703125 Z M 4.289062 -1.703125 "/></g></g></g><g fill="#3b3937" fill-opacity="1"><g transform="translate(138.670174, 248.606489)"><g><path d="M 0.152344 -4.667969 L 1.398438 -4.667969 L 1.398438 -0.015625 L 1.929688 -0.015625 L 1.929688 -4.667969 L 3.179688 -4.667969 L 3.179688 -5.160156 L 0.152344 -5.160156 Z M 0.152344 -4.667969 "/></g></g></g><g fill="#3b3937" fill-opacity="1"><g transform="translate(147.811294, 248.606489)"><g><path d="M 1.097656 0 L 1.097656 -5.144531 L 0.566406 -5.144531 L 0.566406 0 Z M 1.097656 0 "/></g></g></g><g fill="#3b3937" fill-opacity="1"><g transform="translate(155.287627, 248.606489)"><g><path d="M 3.625 -4.652344 L 3.625 -5.144531 L 0.566406 -5.144531 L 0.566406 0 L 1.097656 0 L 1.097656 -2.324219 L 3.550781 -2.324219 L 3.550781 -2.824219 L 1.097656 -2.824219 L 1.097656 -4.652344 Z M 3.625 -4.652344 "/></g></g></g><g fill="#3b3937" fill-opacity="1"><g transform="translate(164.875202, 248.606489)"><g><path d="M 4.289062 -1.703125 L 4.289062 -5.144531 L 3.761719 -5.144531 L 3.761719 -1.625 C 3.761719 -1.414062 3.722656 -1.242188 3.648438 -1.097656 C 3.429688 -0.671875 3.003906 -0.460938 2.375 -0.460938 C 1.96875 -0.460938 1.640625 -0.550781 1.398438 -0.734375 C 1.121094 -0.9375 0.984375 -1.234375 0.984375 -1.625 L 0.984375 -5.144531 L 0.453125 -5.144531 L 0.453125 -1.703125 C 0.453125 -1.144531 0.636719 -0.703125 1 -0.386719 C 1.339844 -0.0820312 1.800781 0.0664062 2.375 0.0664062 C 2.945312 0.0664062 3.398438 -0.0820312 3.746094 -0.386719 C 4.109375 -0.703125 4.289062 -1.144531 4.289062 -1.703125 Z M 4.289062 -1.703125 "/></g></g></g><g fill="#3b3937" fill-opacity="1"><g transform="translate(175.431376, 248.606489)"><g><path d="M 1.097656 -0.53125 L 1.097656 -5.144531 L 0.566406 -5.144531 L 0.566406 0 L 2.9375 0 L 2.9375 -0.53125 Z M 1.097656 -0.53125 "/></g></g></g><g fill="#3b3937" fill-opacity="1"><g transform="translate(105.208063, 256.173616)"><g><path d="M 5.289062 -1.574219 L 4.707031 -1.574219 C 4.523438 -1.242188 4.277344 -0.96875 3.957031 -0.773438 C 3.640625 -0.566406 3.285156 -0.46875 2.90625 -0.46875 C 2.339844 -0.46875 1.855469 -0.671875 1.453125 -1.097656 C 1.058594 -1.5 0.871094 -1.988281 0.871094 -2.566406 C 0.871094 -3.140625 1.058594 -3.632812 1.453125 -4.039062 C 1.632812 -4.230469 1.855469 -4.382812 2.105469 -4.496094 C 2.347656 -4.609375 2.589844 -4.667969 2.832031 -4.667969 C 3.066406 -4.667969 3.269531 -4.636719 3.449219 -4.585938 C 4.003906 -4.417969 4.417969 -4.085938 4.699219 -3.578125 L 5.28125 -3.578125 C 5.085938 -4.0625 4.773438 -4.457031 4.34375 -4.757812 C 3.90625 -5.0625 3.429688 -5.214844 2.90625 -5.214844 C 2.1875 -5.214844 1.582031 -4.949219 1.082031 -4.425781 C 0.847656 -4.183594 0.664062 -3.898438 0.539062 -3.578125 C 0.402344 -3.261719 0.339844 -2.921875 0.339844 -2.566406 C 0.339844 -1.839844 0.582031 -1.226562 1.082031 -0.710938 C 1.582031 -0.179688 2.1875 0.0742188 2.90625 0.0742188 C 3.429688 0.0742188 3.90625 -0.0742188 4.351562 -0.378906 C 4.78125 -0.679688 5.09375 -1.074219 5.289062 -1.574219 Z M 5.289062 -1.574219 "/></g></g></g><g fill="#3b3937" fill-opacity="1"><g transform="translate(116.536091, 256.173616)"><g><path d="M 1.097656 -0.53125 L 1.097656 -5.144531 L 0.566406 -5.144531 L 0.566406 0 L 2.9375 0 L 2.9375 -0.53125 Z M 1.097656 -0.53125 "/></g></g></g><g fill="#3b3937" fill-opacity="1"><g transform="translate(125.435058, 256.173616)"><g><path d="M 5.101562 -2.589844 C 5.101562 -1.996094 4.886719 -1.5 4.480469 -1.089844 C 4.0625 -0.671875 3.5625 -0.46875 2.980469 -0.46875 C 2.398438 -0.46875 1.898438 -0.671875 1.492188 -1.089844 C 1.074219 -1.5 0.871094 -1.996094 0.871094 -2.589844 C 0.871094 -3.164062 1.074219 -3.664062 1.492188 -4.078125 C 1.898438 -4.488281 2.398438 -4.699219 2.980469 -4.699219 C 3.5625 -4.699219 4.0625 -4.488281 4.480469 -4.078125 C 4.886719 -3.664062 5.101562 -3.164062 5.101562 -2.589844 Z M 5.628906 -2.589844 C 5.628906 -2.953125 5.554688 -3.292969 5.417969 -3.617188 C 5.28125 -3.933594 5.09375 -4.214844 4.851562 -4.457031 C 4.609375 -4.691406 4.328125 -4.878906 4.011719 -5.015625 C 3.683594 -5.152344 3.34375 -5.230469 2.980469 -5.230469 C 2.617188 -5.230469 2.269531 -5.152344 1.953125 -5.015625 C 1.632812 -4.878906 1.355469 -4.691406 1.113281 -4.457031 C 0.871094 -4.214844 0.679688 -3.933594 0.542969 -3.617188 C 0.410156 -3.292969 0.339844 -2.953125 0.339844 -2.589844 C 0.339844 -2.226562 0.410156 -1.875 0.542969 -1.558594 C 0.679688 -1.234375 0.871094 -0.953125 1.113281 -0.710938 C 1.355469 -0.46875 1.632812 -0.28125 1.953125 -0.144531 C 2.269531 -0.0078125 2.617188 0.0585938 2.980469 0.0585938 C 3.34375 0.0585938 3.683594 -0.0078125 4.011719 -0.144531 C 4.328125 -0.28125 4.609375 -0.46875 4.851562 -0.710938 C 5.09375 -0.953125 5.28125 -1.234375 5.417969 -1.558594 C 5.554688 -1.875 5.628906 -2.226562 5.628906 -2.589844 Z M 5.628906 -2.589844 "/></g></g></g><g fill="#3b3937" fill-opacity="1"><g transform="translate(137.217115, 256.173616)"><g><path d="M 0.152344 -4.667969 L 1.398438 -4.667969 L 1.398438 -0.015625 L 1.929688 -0.015625 L 1.929688 -4.667969 L 3.179688 -4.667969 L 3.179688 -5.160156 L 0.152344 -5.160156 Z M 0.152344 -4.667969 "/></g></g></g><g fill="#3b3937" fill-opacity="1"><g transform="translate(146.358232, 256.173616)"><g><path d="M 1.097656 0 L 1.097656 -2.300781 L 3.433594 -2.300781 L 3.433594 0 L 3.964844 0 L 3.964844 -5.144531 L 3.433594 -5.144531 L 3.433594 -2.832031 L 1.097656 -2.832031 L 1.097656 -5.144531 L 0.566406 -5.144531 L 0.566406 0 Z M 1.097656 0 "/></g></g></g><g fill="#3b3937" fill-opacity="1"><g transform="translate(156.702528, 256.173616)"><g><path d="M 3.625 0 L 3.625 -0.492188 L 1.097656 -0.492188 L 1.097656 -2.324219 L 3.550781 -2.324219 L 3.550781 -2.824219 L 1.097656 -2.824219 L 1.097656 -4.652344 L 3.625 -4.652344 L 3.625 -5.144531 L 0.566406 -5.144531 L 0.566406 0 Z M 3.625 0 "/></g></g></g><g fill="#3b3937" fill-opacity="1"><g transform="translate(166.706297, 256.173616)"><g><path d="M 1.988281 -2.421875 C 2.65625 -2.261719 3.109375 -2.089844 3.351562 -1.890625 C 3.519531 -1.753906 3.601562 -1.582031 3.601562 -1.371094 C 3.601562 -1.15625 3.554688 -0.984375 3.464844 -0.863281 C 3.238281 -0.542969 2.832031 -0.386719 2.253906 -0.386719 C 1.453125 -0.386719 1 -0.660156 0.902344 -1.203125 L 0.28125 -1.203125 C 0.460938 -0.332031 1.121094 0.0976562 2.253906 0.0976562 C 2.761719 0.0976562 3.1875 -0.0078125 3.527344 -0.234375 C 3.933594 -0.5 4.148438 -0.894531 4.148438 -1.40625 C 4.148438 -1.832031 3.980469 -2.15625 3.648438 -2.382812 C 3.414062 -2.550781 3.035156 -2.703125 2.511719 -2.835938 C 1.984375 -2.972656 1.640625 -3.085938 1.484375 -3.171875 C 1.136719 -3.34375 0.960938 -3.585938 0.96875 -3.90625 C 0.96875 -4.070312 1 -4.214844 1.074219 -4.320312 C 1.269531 -4.617188 1.621094 -4.765625 2.117188 -4.765625 C 2.824219 -4.765625 3.222656 -4.539062 3.328125 -4.101562 L 3.90625 -4.101562 C 3.714844 -4.84375 3.117188 -5.222656 2.117188 -5.222656 C 1.664062 -5.222656 1.265625 -5.101562 0.929688 -4.859375 C 0.589844 -4.617188 0.417969 -4.261719 0.417969 -3.777344 C 0.417969 -3.117188 0.945312 -2.664062 1.988281 -2.421875 Z M 1.988281 -2.421875 "/></g></g></g><g clip-path="url(#617494b086)"><path fill="#ffffff" d="M 33.507812 200.605469 L 350.5 200.605469 L 350.5 237.519531 L 33.507812 237.519531 Z M 33.507812 200.605469 " fill-opacity="1" fill-rule="nonzero"/></g><g fill="#967f71" fill-opacity="1"><g transform="translate(131.511976, 227.124477)"><g><path d="M 8.371094 0.59375 C 9.78125 0.046875 10.878906 -2.398438 11.597656 -4.59375 C 11.710938 -4.9375 11.945312 -5.234375 12.257812 -5.40625 C 13.199219 -5.941406 14.125 -6.425781 14.921875 -6.820312 C 15.125 -6.914062 15.21875 -7.164062 15.109375 -7.367188 C 15.015625 -7.570312 14.765625 -7.664062 14.5625 -7.554688 C 14.359375 -7.460938 13.730469 -7.164062 12.917969 -6.722656 C 12.773438 -6.644531 12.601562 -6.660156 12.476562 -6.757812 C 12.351562 -6.851562 12.304688 -7.007812 12.335938 -7.164062 C 12.476562 -7.710938 12.554688 -8.105469 12.585938 -8.261719 C 12.617188 -8.417969 12.554688 -8.589844 12.398438 -8.683594 C 12.257812 -8.777344 12.070312 -8.777344 11.929688 -8.667969 C 11.882812 -8.621094 6.019531 -4.230469 2.726562 -6.082031 C 1.644531 -6.691406 1.535156 -7.945312 1.628906 -8.886719 C 1.945312 -12.148438 5.15625 -16.585938 9.40625 -17.964844 C 11.253906 -18.574219 12.523438 -18.246094 12.964844 -17.054688 C 13.714844 -15.109375 12.070312 -11.082031 7.804688 -9.234375 C 7.585938 -9.136719 7.492188 -8.886719 7.585938 -8.683594 C 7.679688 -8.480469 7.914062 -8.386719 8.136719 -8.480469 C 12.539062 -10.390625 14.734375 -14.75 13.746094 -17.351562 C 13.121094 -18.964844 11.410156 -19.484375 9.152344 -18.746094 C 4.59375 -17.257812 1.160156 -12.492188 0.800781 -8.964844 C 0.644531 -7.289062 1.175781 -6.019531 2.320312 -5.375 C 4.953125 -3.886719 8.746094 -5.691406 10.863281 -6.960938 C 10.972656 -7.039062 11.113281 -7.023438 11.222656 -6.945312 C 11.332031 -6.851562 11.378906 -6.707031 11.332031 -6.582031 L 11.144531 -5.910156 C 11.097656 -5.769531 11.003906 -5.644531 10.878906 -5.566406 C 8.589844 -4.183594 6.097656 -2.367188 5.988281 -0.941406 C 5.941406 -0.40625 6.207031 0.09375 6.644531 0.359375 C 6.976562 0.59375 7.351562 0.722656 7.742188 0.722656 C 7.945312 0.722656 8.167969 0.675781 8.371094 0.59375 Z M 10.25 -3.339844 C 9.640625 -1.800781 8.886719 -0.484375 8.074219 -0.15625 C 7.742188 -0.046875 7.382812 -0.09375 7.132812 -0.3125 C 6.820312 -0.53125 6.789062 -0.722656 6.804688 -0.863281 C 6.867188 -1.628906 8.089844 -2.710938 9.671875 -3.808594 C 9.8125 -3.902344 10 -3.902344 10.140625 -3.792969 C 10.28125 -3.683594 10.328125 -3.496094 10.25 -3.339844 Z M 10.25 -3.339844 "/></g></g></g><g fill="#967f71" fill-opacity="1"><g transform="translate(145.096158, 227.124477)"><g><path d="M 4.96875 -0.15625 C 9.28125 -0.484375 19.71875 -4.484375 20.03125 -12.367188 C 20.078125 -14.265625 19.15625 -16.050781 17.570312 -17.117188 C 14.953125 -19.0625 10.957031 -19.53125 7.398438 -18.292969 C 3.277344 -16.882812 0.644531 -14.34375 0.328125 -11.503906 C 0.09375 -9.75 0.941406 -8.011719 2.460938 -7.101562 C 3.558594 -6.457031 4.84375 -6.175781 6.097656 -6.316406 C 6.175781 -6.332031 6.253906 -6.300781 6.300781 -6.238281 C 6.347656 -6.175781 6.363281 -6.097656 6.347656 -6.035156 C 5.722656 -4.042969 5.0625 -2.054688 4.546875 -0.722656 C 4.5 -0.59375 4.515625 -0.453125 4.59375 -0.328125 C 4.671875 -0.21875 4.796875 -0.15625 4.9375 -0.15625 Z M 7.257812 -6.207031 C 7.320312 -6.394531 7.476562 -6.550781 7.679688 -6.613281 C 8.949219 -6.976562 10.140625 -7.523438 11.222656 -8.246094 C 11.347656 -8.324219 11.425781 -8.464844 11.410156 -8.621094 C 11.410156 -8.761719 11.316406 -8.902344 11.191406 -8.964844 C 11.050781 -9.027344 10.894531 -9.027344 10.769531 -8.933594 C 9.921875 -8.386719 9.011719 -7.929688 8.058594 -7.585938 C 7.980469 -7.554688 7.882812 -7.585938 7.820312 -7.648438 C 7.773438 -7.695312 7.742188 -7.789062 7.773438 -7.867188 C 8.605469 -10.628906 9.28125 -12.949219 9.296875 -12.980469 C 9.34375 -13.167969 9.265625 -13.371094 9.089844 -13.449219 C 8.933594 -13.542969 8.730469 -13.511719 8.589844 -13.371094 C 7.898438 -12.632812 6.773438 -12.476562 5.910156 -13.011719 C 5.722656 -13.136719 5.46875 -13.074219 5.34375 -12.886719 C 5.21875 -12.679688 5.28125 -12.429688 5.484375 -12.304688 C 6.160156 -11.867188 7.007812 -11.742188 7.773438 -11.960938 C 7.851562 -11.992188 7.945312 -11.976562 8.011719 -11.914062 C 8.058594 -11.867188 8.089844 -11.773438 8.058594 -11.695312 C 7.742188 -10.644531 7.304688 -9.136719 6.820312 -7.539062 C 6.757812 -7.351562 6.582031 -7.210938 6.394531 -7.179688 C 5.1875 -6.976562 3.949219 -7.195312 2.898438 -7.789062 C 1.644531 -8.542969 0.957031 -9.96875 1.144531 -11.425781 C 1.410156 -13.933594 3.855469 -16.207031 7.664062 -17.523438 C 10.988281 -18.667969 14.671875 -18.246094 17.085938 -16.457031 C 18.433594 -15.566406 19.234375 -14.027344 19.21875 -12.398438 C 18.949219 -5.707031 10.359375 -1.914062 5.925781 -1.113281 C 5.847656 -1.097656 5.769531 -1.128906 5.722656 -1.191406 C 5.675781 -1.253906 5.660156 -1.332031 5.675781 -1.410156 C 6.160156 -2.773438 6.722656 -4.5 7.257812 -6.207031 Z M 7.257812 -6.207031 "/></g></g></g><g fill="#967f71" fill-opacity="1"><g transform="translate(164.226821, 227.124477)"><g><path d="M 13.105469 -3.792969 C 12.949219 -3.964844 12.679688 -3.980469 12.507812 -3.824219 C 12.460938 -3.777344 7.804688 0.40625 4.921875 -1.488281 C 3.777344 -2.242188 3.496094 -4.058594 3.496094 -4.074219 C 3.480469 -4.261719 3.339844 -4.40625 3.152344 -4.4375 C 2.976562 -4.453125 2.789062 -4.359375 2.710938 -4.199219 C 1.976562 -2.570312 0.675781 -0.5 0.3125 -0.738281 C 0.28125 -0.738281 0.21875 -0.800781 0.171875 -0.910156 C -0.015625 -1.425781 0.046875 -1.992188 0.3125 -2.476562 C 0.910156 -3.699219 2.007812 -4.578125 3.324219 -4.90625 C 3.464844 -4.9375 3.574219 -5.046875 3.621094 -5.1875 C 3.667969 -5.328125 3.621094 -5.484375 3.527344 -5.597656 C 3.417969 -5.691406 3.277344 -5.738281 3.136719 -5.707031 C 1.566406 -5.328125 0.265625 -4.261719 -0.4375 -2.820312 C -0.816406 -2.117188 -0.863281 -1.269531 -0.5625 -0.53125 C -0.421875 -0.171875 -0.078125 0.078125 0.3125 0.078125 L 0.328125 0.078125 C 1.097656 0.0625 2.054688 -0.894531 2.710938 -1.929688 C 2.789062 -2.054688 2.929688 -2.117188 3.074219 -2.101562 C 3.214844 -2.101562 3.339844 -2.023438 3.402344 -1.898438 C 3.667969 -1.457031 4.027344 -1.082031 4.46875 -0.816406 C 7.882812 1.457031 12.851562 -3.023438 13.074219 -3.214844 C 13.152344 -3.292969 13.199219 -3.402344 13.199219 -3.496094 C 13.214844 -3.605469 13.167969 -3.714844 13.105469 -3.792969 Z M 13.105469 -3.792969 "/></g></g></g><g fill="#967f71" fill-opacity="1"><g transform="translate(176.886596, 227.124477)"><g><path d="M 12.398438 -4.3125 C 12.226562 -4.46875 11.976562 -4.46875 11.820312 -4.3125 C 11.726562 -4.214844 9.671875 -2.179688 6.898438 -4.214844 C 6.742188 -4.328125 6.535156 -4.328125 6.378906 -4.183594 C 6.128906 -3.964844 5.863281 -3.699219 5.582031 -3.417969 C 5.46875 -3.292969 5.28125 -3.246094 5.125 -3.308594 C 4.96875 -3.371094 4.859375 -3.511719 4.84375 -3.683594 C 4.84375 -4.011719 4.796875 -4.34375 4.6875 -4.65625 C 4.625 -4.828125 4.453125 -4.9375 4.261719 -4.90625 C 4.074219 -4.890625 3.933594 -4.75 3.902344 -4.578125 C 3.902344 -4.546875 3.402344 -1.769531 1.269531 -1.207031 C 1.082031 -1.144531 0.878906 -1.191406 0.738281 -1.332031 C 0.609375 -1.472656 0.25 -2.101562 1.066406 -4.089844 C 1.144531 -4.3125 1.050781 -4.546875 0.832031 -4.625 C 0.628906 -4.71875 0.375 -4.609375 0.296875 -4.40625 C -0.578125 -2.242188 -0.28125 -1.238281 0.109375 -0.785156 C 0.453125 -0.40625 0.988281 -0.265625 1.472656 -0.421875 C 2.570312 -0.722656 3.480469 -1.472656 3.996094 -2.476562 C 3.980469 -2.179688 3.933594 -1.882812 3.886719 -1.566406 C 3.871094 -1.503906 3.839844 -1.425781 3.792969 -1.363281 C 1.960938 0.941406 0.296875 3.761719 0.265625 5.535156 C 0.21875 6.003906 0.390625 6.472656 0.722656 6.835938 C 0.863281 6.976562 1.050781 7.070312 1.253906 7.070312 C 1.425781 7.054688 1.597656 7.007812 1.738281 6.914062 C 2.773438 6.222656 4.089844 2.210938 4.609375 -0.988281 C 4.625 -1.066406 4.65625 -1.128906 4.703125 -1.191406 C 5.1875 -1.785156 5.691406 -2.351562 6.191406 -2.851562 C 6.472656 -3.152344 6.898438 -3.214844 7.257812 -3.023438 C 8.949219 -2.132812 11.019531 -2.414062 12.398438 -3.730469 C 12.476562 -3.808594 12.523438 -3.917969 12.523438 -4.027344 C 12.523438 -4.136719 12.476562 -4.230469 12.398438 -4.3125 Z M 3.449219 0.722656 C 3.105469 2.289062 2.601562 3.792969 1.945312 5.25 C 1.582031 5.972656 1.425781 6.253906 1.269531 6.222656 C 1.128906 6.207031 1.082031 5.863281 1.097656 5.550781 C 1.113281 4.40625 2.054688 2.523438 3.308594 0.691406 C 3.386719 0.578125 3.480469 0.609375 3.449219 0.722656 Z M 3.449219 0.722656 "/></g></g></g><g fill="#967f71" fill-opacity="1"><g transform="translate(188.527948, 227.124477)"><g/></g></g><g fill="#967f71" fill-opacity="1"><g transform="translate(194.356458, 227.124477)"><g><path d="M 11.363281 -2.195312 C 12.273438 -4.96875 9.796875 -7.460938 7.414062 -9.890625 C 5.140625 -12.195312 2.976562 -14.390625 4.027344 -16.488281 C 4.8125 -18.089844 7.195312 -17.917969 8.542969 -17.664062 C 12.164062 -16.976562 16.144531 -14.40625 16.300781 -12.664062 C 16.347656 -12.039062 15.863281 -11.519531 14.828125 -11.128906 C 13.386719 -10.738281 11.882812 -10.660156 10.40625 -10.863281 C 10.1875 -10.894531 9.984375 -10.738281 9.953125 -10.519531 C 9.921875 -10.296875 10.078125 -10.09375 10.296875 -10.046875 C 11.914062 -9.8125 13.542969 -9.921875 15.125 -10.359375 C 16.882812 -11.019531 17.179688 -12.023438 17.117188 -12.726562 C 16.914062 -15.109375 12.414062 -17.761719 8.699219 -18.464844 C 5.972656 -18.984375 4.058594 -18.402344 3.292969 -16.851562 C 1.976562 -14.234375 4.453125 -11.726562 6.835938 -9.3125 C 9.042969 -7.070312 11.332031 -4.75 10.597656 -2.445312 C 10.125 -0.988281 7.664062 -0.46875 5.597656 -0.609375 C 3.464844 -0.753906 1.785156 -1.519531 1.613281 -2.429688 C 1.519531 -2.914062 1.769531 -4.230469 5.957031 -6.144531 C 6.082031 -6.207031 6.175781 -6.332031 6.191406 -6.488281 C 6.207031 -6.628906 6.144531 -6.789062 6.019531 -6.867188 C 5.894531 -6.945312 5.738281 -6.960938 5.613281 -6.898438 C 2.148438 -5.3125 0.53125 -3.761719 0.800781 -2.289062 C 1.097656 -0.660156 3.542969 0.078125 5.550781 0.203125 C 5.785156 0.21875 6.019531 0.234375 6.253906 0.234375 C 8.386719 0.234375 10.785156 -0.390625 11.363281 -2.195312 Z M 11.363281 -2.195312 "/></g></g></g><g fill="#967f71" fill-opacity="1"><g transform="translate(207.705624, 227.124477)"><g><path d="M 12.367188 -3.746094 C 12.210938 -3.917969 11.960938 -3.933594 11.789062 -3.777344 C 11.757812 -3.761719 8.527344 -0.941406 6.160156 -1.316406 C 5.453125 -1.425781 4.84375 -1.851562 4.5 -2.476562 C 4.199219 -3.023438 3.652344 -3.371094 3.039062 -3.433594 C 2.273438 -3.480469 1.425781 -3.023438 0.53125 -2.085938 C 0.484375 -2.039062 0.40625 -2.023438 0.34375 -2.054688 C 0.28125 -2.085938 0.25 -2.148438 0.265625 -2.226562 C 0.3125 -2.523438 0.453125 -3.277344 0.515625 -3.558594 C 0.515625 -3.511719 0.628906 -3.730469 0.628906 -3.746094 C 1.960938 -5.566406 5.941406 -11.332031 4.390625 -13.183594 C 4.183594 -13.464844 3.808594 -13.589844 3.464844 -13.496094 C 3.152344 -13.402344 2.195312 -13.105469 0.722656 -7.867188 C 0.359375 -6.597656 0.03125 -5.234375 -0.234375 -3.949219 L -0.34375 -3.808594 C -0.453125 -3.667969 -0.453125 -3.480469 -0.359375 -3.324219 C -0.59375 -2.164062 -0.753906 -1.097656 -0.832031 -0.28125 C -0.847656 -0.09375 -0.738281 0.078125 -0.5625 0.140625 C -0.390625 0.203125 -0.1875 0.140625 -0.078125 -0.015625 C 1.519531 -2.335938 2.539062 -2.632812 2.992188 -2.617188 C 3.324219 -2.585938 3.621094 -2.382812 3.777344 -2.085938 C 4.246094 -1.238281 5.078125 -0.644531 6.050781 -0.5 C 8.777344 -0.078125 12.179688 -3.039062 12.335938 -3.167969 C 12.492188 -3.324219 12.507812 -3.574219 12.367188 -3.746094 Z M 3.699219 -12.710938 C 3.730469 -12.710938 3.746094 -12.664062 3.761719 -12.648438 C 4.515625 -11.804688 1.394531 -5.5 1.003906 -5.753906 C 0.628906 -5.988281 3.039062 -12.710938 3.699219 -12.710938 Z M 3.699219 -12.710938 "/></g></g></g><g fill="#967f71" fill-opacity="1"><g transform="translate(219.550659, 227.124477)"><g><path d="M 11.425781 -4.453125 C 11.347656 -4.53125 11.253906 -4.5625 11.144531 -4.5625 C 11.035156 -4.5625 10.925781 -4.53125 10.847656 -4.453125 C 8.964844 -2.570312 6.300781 -1.707031 3.683594 -2.148438 C 3.480469 -2.195312 3.339844 -2.382812 3.371094 -2.585938 C 3.496094 -3.339844 3.433594 -4.105469 2.992188 -4.359375 C 2.710938 -4.515625 2.289062 -4.53125 1.785156 -3.683594 C 1.597656 -3.402344 1.535156 -3.054688 1.597656 -2.726562 C 1.675781 -2.398438 1.882812 -2.101562 2.164062 -1.929688 C 2.335938 -1.785156 2.132812 -1.550781 2.023438 -1.441406 C 1.722656 -1.082031 1.207031 -1.019531 0.847656 -1.300781 C 0.390625 -1.503906 0.1875 -2.007812 0.359375 -2.460938 C 0.5625 -3.292969 1.378906 -4.011719 1.675781 -4.011719 C 1.898438 -4.011719 2.085938 -4.199219 2.085938 -4.421875 C 2.101562 -4.640625 1.914062 -4.828125 1.691406 -4.84375 L 1.675781 -4.84375 C 0.894531 -4.84375 -0.15625 -3.777344 -0.4375 -2.664062 C -0.707031 -1.851562 -0.328125 -0.957031 0.453125 -0.578125 C 0.753906 -0.40625 1.082031 -0.328125 1.425781 -0.3125 C 2.101562 -0.34375 2.695312 -0.753906 2.976562 -1.378906 C 3.007812 -1.425781 3.089844 -1.457031 3.152344 -1.441406 C 5.140625 -0.847656 8.777344 -1.222656 11.425781 -3.855469 C 11.503906 -3.933594 11.550781 -4.042969 11.550781 -4.152344 C 11.550781 -4.261719 11.503906 -4.375 11.425781 -4.453125 Z M 2.554688 -2.664062 C 2.382812 -2.820312 2.351562 -3.074219 2.492188 -3.261719 C 2.539062 -3.339844 2.570312 -3.386719 2.601562 -3.433594 C 2.617188 -3.183594 2.601562 -2.914062 2.554688 -2.664062 Z M 2.554688 -2.664062 "/></g></g></g><g fill="#967f71" fill-opacity="1"><g transform="translate(230.377273, 227.124477)"><g><path d="M 12.917969 -4.089844 C 12.851562 -4.167969 12.742188 -4.214844 12.632812 -4.214844 C 12.523438 -4.214844 12.414062 -4.183594 12.335938 -4.105469 C 10.171875 -2.054688 6.613281 -1.613281 4.058594 -1.457031 C 3.980469 -1.441406 3.933594 -1.566406 3.980469 -1.644531 C 4.183594 -1.914062 4.328125 -2.226562 4.390625 -2.554688 C 4.515625 -3.402344 4.011719 -4.214844 3.183594 -4.453125 C 2.445312 -4.75 1.644531 -4.296875 0.769531 -3.136719 C 0.707031 -3.054688 0.628906 -3.089844 0.644531 -3.183594 C 0.707031 -3.652344 0.769531 -4.105469 0.832031 -4.53125 C 0.863281 -4.6875 0.800781 -4.828125 0.691406 -4.921875 C 0.5625 -5.03125 0.40625 -5.046875 0.265625 -4.984375 C 0.125 -4.9375 0.03125 -4.796875 0.015625 -4.65625 C -0.15625 -3.402344 -0.359375 -2.101562 -0.578125 -0.847656 C -2.007812 2.023438 -3.558594 6.441406 -2.820312 7.132812 C -2.710938 7.242188 -2.554688 7.304688 -2.398438 7.304688 C -2.320312 7.304688 -2.257812 7.304688 -2.179688 7.273438 C -1.285156 6.960938 -0.421875 3.089844 0.21875 -0.628906 C 0.234375 -0.660156 0.234375 -0.675781 0.25 -0.691406 C 0.691406 -1.660156 1.300781 -2.554688 2.039062 -3.324219 C 2.273438 -3.542969 2.617188 -3.792969 2.882812 -3.683594 C 3.417969 -3.464844 3.652344 -3.136719 3.574219 -2.695312 C 3.371094 -1.976562 2.742188 -1.425781 1.992188 -1.316406 C 1.898438 -1.316406 1.800781 -1.300781 1.707031 -1.300781 C 1.488281 -1.269531 1.332031 -1.082031 1.332031 -0.863281 C 1.363281 -0.644531 1.535156 -0.484375 1.753906 -0.484375 C 1.867188 -0.484375 1.976562 -0.484375 2.085938 -0.5 C 2.382812 -0.53125 2.726562 -0.546875 3.121094 -0.5625 C 5.769531 -0.722656 10.21875 -0.957031 12.902344 -3.511719 C 12.996094 -3.574219 13.027344 -3.683594 13.042969 -3.792969 C 13.042969 -3.902344 12.996094 -4.011719 12.917969 -4.089844 Z M -2.179688 5.972656 C -1.976562 5.03125 -1.722656 4.105469 -1.394531 3.214844 C -1.582031 4.152344 -1.851562 5.0625 -2.179688 5.972656 Z M -2.179688 5.972656 "/></g></g></g></svg>